<svg width="998" height="923" viewBox="0 0 998 923" fill="none" xmlns="http://www.w3.org/2000/svg">
<path d="M501.964 881.363C767.755 881.363 983.221 707.256 983.221 492.484C983.221 277.712 767.755 103.605 501.964 103.605C236.173 103.605 20.707 277.712 20.707 492.484C20.707 707.256 236.173 881.363 501.964 881.363Z" fill="#76A857"/>
<path d="M528.334 11.4841L464.41 16.6984L478.392 165.698L542.315 160.484L528.334 11.4841Z" fill="#5CB85C"/>
<path d="M501.964 163.432L373.629 223.26L437.796 133.519L341.545 103.605H437.796L501.964 13.8636L566.132 103.605H662.383L566.132 133.519L630.299 223.26L501.964 163.432Z" fill="#5CB85C"/>
<path opacity="0.4" d="M321.271 485.268C361.233 471.707 373.977 410.372 349.735 348.274C325.493 286.176 273.446 246.829 233.484 260.39C193.522 273.951 180.779 335.285 205.02 397.383C229.262 459.482 281.309 498.829 321.271 485.268Z" fill="white" fill-opacity="0.6"/>
<path opacity="0.5" d="M309.462 289.07C330.725 289.07 347.962 272.999 347.962 253.174C347.962 233.349 330.725 217.277 309.462 217.277C288.198 217.277 270.961 233.349 270.961 253.174C270.961 272.999 288.198 289.07 309.462 289.07Z" fill="white" fill-opacity="0.6"/>
</svg>
