<svg width="106" height="110" viewBox="0 0 106 110" fill="none" xmlns="http://www.w3.org/2000/svg">
<path d="M53 96.25C74.9533 96.25 92.75 80.2442 92.75 60.5C92.75 40.7558 74.9533 24.75 53 24.75C31.0467 24.75 13.25 40.7558 13.25 60.5C13.25 80.2442 31.0467 96.25 53 96.25Z" fill="#E85D3B"/>
<path d="M55.1778 16.2811L49.8979 16.7605L51.0528 30.4582L56.3326 29.9788L55.1778 16.2811Z" fill="#5CB85C"/>
<path d="M53 30.25L42.4 35.75L47.7 27.5L39.75 24.75H47.7L53 16.5L58.3 24.75H66.25L58.3 27.5L63.6 35.75L53 30.25Z" fill="#5CB85C"/>
<path opacity="0.4" d="M38.0754 59.8366C41.3761 58.5899 42.4287 52.9514 40.4264 47.2426C38.4242 41.5338 34.1253 37.9166 30.8246 39.1633C27.5239 40.41 26.4713 46.0485 28.4736 51.7573C30.4758 57.466 34.7747 61.0832 38.0754 59.8366Z" fill="white"/>
<path opacity="0.5" d="M37.0999 41.8C38.8562 41.8 40.2799 40.3225 40.2799 38.5C40.2799 36.6774 38.8562 35.2 37.0999 35.2C35.3437 35.2 33.9199 36.6774 33.9199 38.5C33.9199 40.3225 35.3437 41.8 37.0999 41.8Z" fill="white"/>
</svg>
